<svg version="1.1" x="0px" y="0px" viewBox="0 0 180.103 171.002" style="enable-background:new 0 0 500 500;" xmlns="http://www.w3.org/2000/svg">
  <defs></defs>
  <g id="BACKGROUND"></g>
  <g id="OBJECTS" transform="matrix(1, 0, 0, 1, -13, -16)">
    <g transform="matrix(1, 0, 0, 1, -262.000038, 0)">
      <g>
        <g style="opacity:0.25;">
          <path style="fill:#027FCC;" d="M305.654,156.391c-1.458-2.867-1.943-6.071-1.402-9.266l2.068-12.216l-11.091-5.522
					c-2.901-1.445-5.205-3.723-6.664-6.59c-3.743-7.357-0.805-16.387,6.548-20.127l6.566-3.34c3.7-1.882,8.04-2.123,11.906-0.719
					c-1.607-1.445-2.962-3.186-3.968-5.164c-0.357-0.702-0.671-1.436-0.933-2.181c-0.449-1.276-0.746-2.579-0.896-3.887
					c-1.343-1.267-2.487-2.772-3.356-4.482c-2.533-4.979-2.33-10.643,0.134-15.253c0.066-2.845,0.822-5.65,2.206-8.145
					c0.594-4.908,3.562-9.385,8.289-11.789l6.197-3.152c3.445-1.752,7.391-2.14,11.111-1.093l4.579,1.289l0.19-0.097
					c4.701-2.392,10.165-1.742,14.134,1.214c3.654-0.63,7.402,0.294,10.335,2.478c3.279-0.566,6.634,0.121,9.408,1.847
					c0.262-1.731,0.807-3.412,1.617-4.972c0.226-5.959,3.582-11.647,9.213-14.511c6.979-3.55,15.288-1.782,20.283,3.792
					c5.249,1.432,9.786,5.015,12.395,10.144c1.465,2.88,2.176,5.971,2.174,9.031c15.766-0.694,22.056,2.289,25.395,4.821
					c1.858,1.322,3.3,2.978,4.292,4.929c0.023,0.045,0.121,0.239,0.147,0.289c6.172,12.134-5.026,25.499-11.384,32.608
					c1.446,4.433,1.398,9.13-0.034,13.429c2.007,4.689,2.099,9.886,0.253,14.656c-1.875,4.842-5.523,8.664-10.273,10.762
					c-4.417,1.951-9.189,2.127-13.495,0.82c-0.693,1.7-1.733,3.263-3.082,4.572c0.038,3.657-1.422,7.231-4.083,9.813
					c0.052,4.949-2.64,9.746-7.342,12.138l-0.376,0.191l-1.556,4.193c-1.343,3.623-3.981,6.584-7.426,8.337l-6.197,3.152
					c-3.748,1.907-7.981,2.206-11.934,0.85c-3.8-1.303-6.892-3.986-8.707-7.554c-0.947-1.862-1.496-3.871-1.632-5.97l-2.083-32.208
					c-0.263,0.073-0.525,0.145-0.786,0.217c1.683,7.481-2.096,15.371-9.366,18.584c-2.742,1.211-5.644,1.611-8.433,1.299
					c-1.433,2.544-3.598,4.656-6.251,6.005l-6.566,3.34C318.424,166.691,309.396,163.749,305.654,156.391z"></path>
        </g>
        <g>
          <path style="fill:#CCF3FF;" d="M304.713,154.51c-1.458-2.867-1.943-6.071-1.402-9.266l2.068-12.216l-11.091-5.522
					c-2.901-1.445-5.205-3.724-6.664-6.59c-3.743-7.357-0.805-16.387,6.548-20.127l6.566-3.34c3.7-1.882,8.04-2.123,11.906-0.719
					c-1.607-1.445-2.962-3.186-3.968-5.164c-0.357-0.702-0.671-1.436-0.933-2.181c-0.449-1.276-0.746-2.579-0.896-3.887
					c-1.343-1.267-2.487-2.773-3.357-4.482c-2.533-4.979-2.33-10.643,0.134-15.253c0.066-2.845,0.822-5.65,2.206-8.145
					c0.594-4.908,3.562-9.385,8.289-11.789l6.197-3.152c3.445-1.752,7.391-2.14,11.111-1.093l4.579,1.289l0.19-0.097
					c4.701-2.392,10.164-1.742,14.134,1.214c3.654-0.63,7.402,0.294,10.335,2.478c3.279-0.566,6.634,0.121,9.408,1.847
					c0.262-1.731,0.807-3.412,1.617-4.972c0.226-5.959,3.582-11.647,9.213-14.511c6.979-3.55,15.288-1.782,20.283,3.792
					c5.249,1.433,9.786,5.015,12.395,10.145c1.465,2.88,2.176,5.971,2.174,9.031c15.766-0.694,22.056,2.289,25.395,4.821
					c1.858,1.322,3.3,2.978,4.292,4.929c0.023,0.045,0.121,0.239,0.147,0.289c6.172,12.134-5.026,25.499-11.384,32.608
					c1.446,4.433,1.398,9.13-0.034,13.429c2.007,4.689,2.099,9.886,0.253,14.655c-1.875,4.842-5.523,8.664-10.273,10.762
					c-4.417,1.951-9.189,2.127-13.495,0.82c-0.693,1.7-1.733,3.263-3.082,4.572c0.038,3.657-1.422,7.231-4.083,9.813
					c0.052,4.949-2.64,9.746-7.342,12.138l-0.376,0.191l-1.556,4.193c-1.343,3.623-3.981,6.584-7.426,8.337l-6.197,3.152
					c-3.748,1.907-7.981,2.206-11.934,0.85c-3.8-1.303-6.892-3.986-8.707-7.554c-0.947-1.862-1.496-3.871-1.632-5.97l-2.083-32.208
					c-0.263,0.073-0.525,0.145-0.786,0.217c1.683,7.481-2.096,15.371-9.366,18.584c-2.742,1.211-5.644,1.611-8.433,1.299
					c-1.433,2.544-3.598,4.656-6.251,6.005l-6.566,3.34C317.483,164.81,308.456,161.868,304.713,154.51z"></path>
        </g>
      </g>
      <path style="fill:none;stroke:#0E1619;stroke-width:0.6906;stroke-miterlimit:10;stroke-dasharray:4.1438,4.1438;" d="
			M307.175,153.258c-1.187-2.334-1.582-4.946-1.14-7.552l2.068-12.217c0.102-0.6,0.001-1.198-0.262-1.713
			c-0.262-0.516-0.686-0.949-1.231-1.22l-11.091-5.522c-2.367-1.179-4.246-3.036-5.433-5.37c-3.052-6-0.657-13.362,5.338-16.412
			l6.566-3.34c2.997-1.525,6.536-1.737,9.71-0.585c1.243,0.452,2.631-0.041,3.312-1.175c0.501-0.836,0.514-1.847,0.093-2.675
			c-0.151-0.296-0.357-0.569-0.615-0.802c-1.385-1.245-2.513-2.713-3.352-4.362c-0.301-0.592-0.567-1.213-0.79-1.846
			c-0.374-1.066-0.629-2.171-0.757-3.285c-0.038-0.329-0.134-0.647-0.283-0.938c-0.143-0.281-0.334-0.537-0.567-0.757
			c-1.142-1.078-2.081-2.331-2.79-3.725c-2.039-4.009-1.999-8.756,0.108-12.698c0.204-0.382,0.316-0.806,0.326-1.238
			c0.055-2.4,0.699-4.776,1.86-6.869c0.173-0.312,0.284-0.654,0.326-1.008c0.501-4.138,3.043-7.748,6.799-9.659l6.197-3.152
			c2.825-1.437,6.06-1.755,9.11-0.896l4.579,1.289c0.668,0.188,1.383,0.118,2.001-0.197l0.19-0.097
			c3.64-1.851,7.944-1.481,11.232,0.967c0.608,0.452,1.373,0.635,2.12,0.506c2.872-0.496,5.867,0.223,8.215,1.972
			c0.608,0.452,1.373,0.635,2.119,0.507c2.583-0.445,5.24,0.077,7.48,1.47c0.789,0.491,1.772,0.552,2.616,0.163
			c0.844-0.389,1.436-1.176,1.574-2.095c0.218-1.44,0.668-2.823,1.338-4.114c0.188-0.362,0.293-0.761,0.309-1.168
			c0.196-5.179,3.148-9.836,7.704-12.153c5.714-2.907,12.694-1.602,16.973,3.173c0.355,0.397,0.817,0.682,1.33,0.822
			c4.589,1.252,8.475,4.435,10.66,8.732c1.228,2.414,1.876,5.103,1.874,7.777c0,0.44,0.105,0.87,0.301,1.254
			c0.139,0.274,0.325,0.526,0.552,0.742c0.545,0.522,1.278,0.798,2.032,0.765c16.997-0.748,21.97,3.023,23.604,4.263
			c1.557,1.11,2.712,2.432,3.499,3.98l0.147,0.289c4.953,9.737-3.266,20.887-10.981,29.514c-0.656,0.734-0.873,1.762-0.567,2.699
			c1.252,3.838,1.242,7.883-0.028,11.699c-0.214,0.641-0.185,1.338,0.081,1.959c1.721,4.021,1.798,8.486,0.217,12.571
			c-1.609,4.154-4.739,7.433-8.813,9.233c-3.648,1.612-7.76,1.862-11.577,0.704c-1.366-0.415-2.822,0.279-3.36,1.601
			c-0.562,1.379-1.385,2.601-2.448,3.632c-0.543,0.527-0.846,1.254-0.838,2.011c0.031,2.928-1.152,5.771-3.244,7.801
			c-0.544,0.527-0.847,1.254-0.839,2.011c0.043,4.098-2.191,7.795-5.832,9.647l-0.376,0.191c-0.619,0.315-1.096,0.85-1.338,1.501
			l-1.556,4.193c-1.102,2.971-3.264,5.398-6.088,6.835l-6.197,3.152c-3.071,1.562-6.546,1.811-9.786,0.699
			c-3.117-1.069-5.653-3.268-7.141-6.193c-0.776-1.526-1.226-3.173-1.337-4.896l-2.083-32.208c-0.025-0.379-0.126-0.744-0.295-1.075
			c-0.2-0.393-0.494-0.738-0.863-1c-0.679-0.482-1.537-0.632-2.34-0.409l-0.775,0.214c-1.424,0.39-2.289,1.83-1.965,3.27
			c1.424,6.33-1.851,12.828-7.787,15.451c-2.203,0.973-4.627,1.346-7.01,1.08c-1.101-0.123-2.169,0.424-2.714,1.389
			c-1.192,2.115-2.954,3.809-5.097,4.899l-6.566,3.34C317.588,161.658,310.227,159.258,307.175,153.258z"></path>
      <g>
        <g style="opacity:0.25;">
          <path style="fill:#027FCC;" d="M424.659,113.504c-0.655-1.483-1.701-2.66-2.948-3.512c3.21-3.127,4.169-8.092,2.031-12.297
					c-2.152-4.231-6.776-6.377-11.22-5.581c-0.104-0.76-0.304-1.518-0.672-2.241c-1.764-3.468-6.005-4.849-9.473-3.085
					c-3.428,1.744-4.805,5.907-3.132,9.352c-2.594,1.654-3.579,5.018-2.155,7.817c1.316,2.587,4.237,3.816,6.934,3.102
					c-1.84,1.983-2.573,4.873-1.613,7.603c1.043,2.964,3.752,4.859,6.706,5.016c0.071,0.201,0.11,0.407,0.198,0.605
					c1.872,4.237,6.824,6.155,11.062,4.283C424.613,122.694,426.531,117.741,424.659,113.504z"></path>
          <path style="fill:#027FCC;" d="M330.688,62.386L330.688,62.386c-0.598-1.175-0.13-2.611,1.045-3.209l10.163-5.17
					c1.175-0.598,2.612-0.13,3.209,1.045l0,0c0.598,1.175,0.13,2.612-1.045,3.209l-10.163,5.17
					C332.722,64.029,331.285,63.561,330.688,62.386z"></path>
          <path style="fill:#027FCC;" d="M341.022,64.864L341.022,64.864c-0.598-1.175-0.13-2.612,1.045-3.209l10.163-5.17
					c1.175-0.598,2.612-0.13,3.209,1.045l0,0c0.598,1.175,0.13,2.612-1.045,3.209l-10.163,5.17
					C343.056,66.507,341.62,66.039,341.022,64.864z"></path>
          <path style="fill:#027FCC;" d="M351.357,67.342L351.357,67.342c-0.598-1.175-0.13-2.612,1.045-3.209l10.163-5.17
					c1.175-0.598,2.612-0.13,3.209,1.045l0,0c0.598,1.175,0.13,2.612-1.045,3.209l-10.163,5.17
					C353.391,68.985,351.954,68.517,351.357,67.342z"></path>
          <path style="fill:#027FCC;" d="M378.456,156.292L378.456,156.292c0.598,1.175,2.034,1.643,3.209,1.045l10.163-5.17
					c1.175-0.598,1.643-2.034,1.045-3.209v0c-0.598-1.175-2.034-1.643-3.209-1.045l-10.163,5.17
					C378.327,153.681,377.859,155.117,378.456,156.292z"></path>
          <path style="fill:#027FCC;" d="M382.539,146.48L382.539,146.48c0.598,1.175,2.034,1.643,3.209,1.045l10.163-5.17
					c1.175-0.598,1.643-2.034,1.045-3.209l0,0c-0.598-1.175-2.034-1.643-3.209-1.045l-10.163,5.17
					C382.409,143.869,381.941,145.305,382.539,146.48z"></path>
          <path style="fill:#027FCC;" d="M386.622,136.668L386.622,136.668c0.598,1.175,2.034,1.643,3.209,1.045l10.163-5.17
					c1.175-0.598,1.643-2.034,1.045-3.209h0c-0.598-1.175-2.034-1.643-3.209-1.045l-10.163,5.17
					C386.492,134.057,386.024,135.493,386.622,136.668z"></path>
          <path style="fill:#027FCC;" d="M391.124,71.061l-62.002-17.46c-1.037-0.292-2.146-0.183-3.106,0.306l-6.197,3.152
					c-2.745,1.396-3.166,5.146-0.799,7.116l36.536,30.414c1.317,1.096,3.159,1.303,4.686,0.526l31.663-16.106
					C395.385,77.239,394.881,72.119,391.124,71.061z"></path>
          <path style="opacity:0.46;fill:#027FCC;" d="M391.124,71.061l-62.002-17.46c-1.037-0.292-2.146-0.183-3.106,0.306l-6.197,3.152
					c-2.745,1.396-3.166,5.146-0.799,7.116l36.536,30.414c1.317,1.096,3.159,1.303,4.686,0.526l31.663-16.106
					C395.385,77.239,394.881,72.119,391.124,71.061z"></path>
          <path style="opacity:0.46;fill:#027FCC;" d="M391.471,71.189l-8.472,4.31c-13.474,6.854-29.736,5.028-41.355-4.644
					L323.08,55.401l-3.26,1.658c-2.745,1.396-3.166,5.146-0.799,7.116l36.536,30.414c1.317,1.096,3.16,1.303,4.687,0.526
					l31.663-16.106C395.272,77.297,394.9,72.461,391.471,71.189z"></path>
          <path style="fill:#027FCC;" d="M406.946,102.165l-22.399,60.394c-0.375,1.01-1.116,1.842-2.076,2.33l-6.197,3.152
					c-2.745,1.396-6.023-0.471-6.222-3.544l-3.067-47.439c-0.11-1.71,0.807-3.321,2.334-4.098l31.663-16.106
					C404.462,95.084,408.303,98.505,406.946,102.165z"></path>
          <path style="opacity:0.46;fill:#027FCC;" d="M406.946,102.165l-22.399,60.394c-0.375,1.01-1.116,1.842-2.076,2.33l-6.197,3.152
					c-2.745,1.396-6.023-0.471-6.222-3.544l-3.067-47.439c-0.11-1.71,0.807-3.321,2.334-4.098l31.663-16.106
					C404.462,95.084,408.303,98.505,406.946,102.165z"></path>
          <path style="opacity:0.46;fill:#027FCC;" d="M407.033,101.817l-8.472,4.31c-13.474,6.854-21.574,21.073-20.599,36.159
					l1.558,24.105l-3.26,1.658c-2.745,1.396-6.023-0.471-6.222-3.545l-3.067-47.439c-0.11-1.71,0.808-3.321,2.335-4.098
					l31.663-16.106C404.334,95.149,408.024,98.297,407.033,101.817z"></path>
          <path style="fill:#027FCC;" d="M425.738,89.486c-7.378,8.197-16.676,14.41-27.037,18.187
					c-23.955,8.732-71.244,24.857-74.975,17.523c-3.658-7.192,35.585-34.956,57.063-49.437c9.643-6.502,20.803-10.426,32.399-11.312
					c10.162-0.776,21.173-0.281,23.24,3.783C438.998,73.279,432.521,81.949,425.738,89.486z"></path>
          <path style="opacity:0.25;fill:#027FCC;" d="M425.738,89.486c6.783-7.537,13.113-16.496,10.544-21.546
					c-0.538-1.057-1.897-1.557-3.458-2.142c-0.183,0.337-0.183,0.389-0.378,0.728c1.317,5.142-4.21,13.5-10.186,20.675
					c-7.058,8.474-16.111,15.039-26.319,19.211c-12.456,5.09-31.324,12.483-46.959,17.278c16.189-4.137,36.503-11.2,49.721-16.018
					C409.062,103.896,418.36,97.683,425.738,89.486z"></path>
          <path style="fill:#027FCC;" d="M327.082,149.263c1.102-0.561,1.873-1.61,2.08-2.829l4.347-25.678l0.359-0.183l-0.302-0.151
					l0.056-0.333l-0.359,0.183l-23.314-11.607c-1.107-0.551-2.409-0.546-3.511,0.015l-6.565,3.34
					c-2.86,1.455-2.842,5.546,0.03,6.976l15.836,7.885c1.54,0.767,2.397,2.451,2.11,4.147l-2.953,17.442
					c-0.536,3.163,2.761,5.587,5.621,4.132L327.082,149.263z"></path>
          <path style="opacity:0.46;fill:#027FCC;" d="M327.082,149.263c1.102-0.561,1.873-1.61,2.08-2.829l4.347-25.678l0.359-0.183
					l-0.302-0.151l0.056-0.333l-0.359,0.183l-23.314-11.607c-1.107-0.551-2.409-0.546-3.511,0.015l-6.565,3.34
					c-2.86,1.455-2.842,5.546,0.03,6.976l15.836,7.885c1.54,0.767,2.397,2.451,2.11,4.147l-2.953,17.442
					c-0.536,3.163,2.761,5.587,5.621,4.132L327.082,149.263z"></path>
          <path style="fill:#027FCC;" d="M427.07,67.48c2.194,1.666,4.69,4.51,4.87,8.899c0.099,2.414-0.929,4.742-2.616,6.472l0,0
					l-8.723-17.147l0.543-0.025C423.271,65.578,425.375,66.193,427.07,67.48z"></path>
          <path style="fill:#027FCC;" d="M414.37,67.572c0,0-25.657,5.467-43.801,22.644L414.37,67.572z"></path>
          <path style="fill:#027FCC;" d="M405.186,62.344c-0.546-1.237-1.419-2.219-2.459-2.929c2.677-2.608,3.477-6.749,1.694-10.256
					c-1.795-3.529-5.651-5.318-9.357-4.655c-0.087-0.634-0.254-1.266-0.56-1.869c-1.471-2.892-5.009-4.044-7.901-2.573
					c-2.859,1.454-4.008,4.926-2.612,7.8c-2.164,1.38-2.985,4.185-1.797,6.52c1.098,2.158,3.534,3.182,5.783,2.587
					c-1.535,1.654-2.146,4.064-1.345,6.341c0.87,2.472,3.129,4.052,5.593,4.183c0.059,0.168,0.092,0.339,0.165,0.504
					c1.561,3.534,5.692,5.133,9.226,3.572C405.147,70.009,406.747,65.878,405.186,62.344z"></path>
          <path style="fill:#027FCC;" d="M345.035,134.663c-0.417-0.943-1.082-1.693-1.876-2.234c2.042-1.989,2.653-5.148,1.292-7.823
					c-1.369-2.692-4.311-4.057-7.138-3.551c-0.066-0.484-0.194-0.966-0.428-1.425c-1.122-2.206-3.821-3.085-6.027-1.963
					c-2.181,1.109-3.057,3.758-1.993,5.95c-1.651,1.052-2.277,3.192-1.371,4.973c0.837,1.646,2.695,2.428,4.411,1.974
					c-1.171,1.262-1.637,3.1-1.026,4.837c0.663,1.886,2.387,3.091,4.266,3.191c0.045,0.128,0.07,0.259,0.126,0.385
					c1.191,2.696,4.342,3.916,7.037,2.725C345.006,140.509,346.226,137.358,345.035,134.663z"></path>
          <path style="fill:#027FCC;" d="M339.044,86.05c-0.594-1.345-1.544-2.414-2.675-3.187c2.913-2.837,3.783-7.342,1.842-11.157
					c-1.953-3.839-6.148-5.786-10.18-5.064c-0.094-0.69-0.276-1.377-0.61-2.033c-1.601-3.147-5.449-4.4-8.595-2.799
					c-3.111,1.582-4.36,5.359-2.842,8.485c-2.354,1.501-3.247,4.552-1.955,7.092c1.194,2.347,3.844,3.462,6.291,2.815
					c-1.669,1.8-2.335,4.422-1.464,6.898c0.946,2.689,3.404,4.408,6.085,4.551c0.065,0.183,0.1,0.369,0.179,0.549
					c1.698,3.845,6.192,5.585,10.037,3.886C339.003,94.388,340.742,89.894,339.044,86.05z"></path>
        </g>
        <g>
          <g>
            <path style="fill:#FFFFFF;" d="M423.968,112.122c-0.655-1.483-1.701-2.66-2.948-3.512c3.21-3.127,4.169-8.092,2.031-12.297
						c-2.152-4.231-6.776-6.377-11.219-5.581c-0.104-0.76-0.304-1.518-0.672-2.241c-1.764-3.468-6.005-4.849-9.473-3.085
						c-3.428,1.744-4.805,5.907-3.132,9.352c-2.595,1.654-3.579,5.018-2.155,7.817c1.316,2.587,4.237,3.816,6.934,3.102
						c-1.84,1.983-2.573,4.873-1.613,7.603c1.043,2.964,3.752,4.859,6.706,5.016c0.071,0.201,0.11,0.407,0.198,0.605
						c1.872,4.237,6.824,6.155,11.062,4.283C423.923,121.312,425.84,116.36,423.968,112.122z"></path>
            <g>
              <g>
                <path style="fill:#F1A900;" d="M329.997,61.005L329.997,61.005c-0.598-1.175-0.13-2.612,1.045-3.209l10.163-5.17
								c1.175-0.598,2.612-0.13,3.209,1.045l0,0c0.598,1.175,0.13,2.612-1.045,3.209l-10.163,5.17
								C332.031,62.648,330.595,62.18,329.997,61.005z"></path>
                <path style="fill:#F1A900;" d="M340.331,63.483L340.331,63.483c-0.598-1.175-0.13-2.612,1.045-3.209l10.163-5.17
								c1.175-0.598,2.612-0.13,3.209,1.045l0,0c0.598,1.175,0.13,2.612-1.045,3.209l-10.163,5.17
								C342.366,65.126,340.929,64.658,340.331,63.483z"></path>
                <path style="fill:#F1A900;" d="M350.666,65.961L350.666,65.961c-0.598-1.175-0.13-2.612,1.045-3.209l10.163-5.17
								c1.175-0.598,2.612-0.13,3.209,1.045l0,0c0.598,1.175,0.13,2.612-1.045,3.209l-10.163,5.17
								C352.7,67.604,351.264,67.136,350.666,65.961z"></path>
              </g>
              <g>
                <path style="fill:#F1A900;" d="M377.766,154.911L377.766,154.911c0.598,1.175,2.034,1.643,3.209,1.045l10.163-5.17
								c1.175-0.598,1.643-2.034,1.045-3.209v0c-0.598-1.175-2.034-1.643-3.209-1.045l-10.163,5.17
								C377.636,152.299,377.168,153.736,377.766,154.911z"></path>
                <path style="fill:#F1A900;" d="M381.848,145.099L381.848,145.099c0.598,1.175,2.034,1.643,3.209,1.045l10.163-5.17
								c1.175-0.598,1.643-2.034,1.045-3.209l0,0c-0.598-1.175-2.034-1.643-3.209-1.045l-10.163,5.17
								C381.719,142.487,381.251,143.924,381.848,145.099z"></path>
                <path style="fill:#F1A900;" d="M385.931,135.287L385.931,135.287c0.598,1.175,2.034,1.643,3.209,1.045l10.163-5.17
								c1.175-0.598,1.643-2.034,1.045-3.209h0c-0.598-1.175-2.034-1.643-3.209-1.045l-10.163,5.17
								C385.801,132.675,385.334,134.112,385.931,135.287z"></path>
              </g>
              <g>
                <path style="fill:#F1A900;" d="M390.434,69.68l-62.002-17.459c-1.037-0.292-2.146-0.183-3.106,0.306l-6.197,3.152
								c-2.745,1.396-3.166,5.146-0.799,7.116l36.536,30.414c1.317,1.096,3.159,1.303,4.686,0.526l31.663-16.106
								C394.694,75.858,394.191,70.738,390.434,69.68z"></path>
                <path style="opacity:0.46;fill:#F1A900;" d="M390.434,69.68l-62.002-17.459c-1.037-0.292-2.146-0.183-3.106,0.306
								l-6.197,3.152c-2.745,1.396-3.166,5.146-0.799,7.116l36.536,30.414c1.317,1.096,3.159,1.303,4.686,0.526l31.663-16.106
								C394.694,75.858,394.191,70.738,390.434,69.68z"></path>
                <path style="opacity:0.46;fill:#F1A900;" d="M390.781,69.807l-8.472,4.31c-13.475,6.854-29.736,5.028-41.355-4.643
								L322.389,54.02l-3.26,1.658c-2.745,1.396-3.166,5.146-0.799,7.116l36.536,30.414c1.317,1.096,3.16,1.303,4.687,0.526
								l31.663-16.106C394.581,75.916,394.21,71.079,390.781,69.807z"></path>
                <path style="fill:#F1A900;" d="M406.256,100.784l-22.399,60.394c-0.375,1.01-1.116,1.842-2.076,2.33l-6.197,3.152
								c-2.745,1.396-6.023-0.471-6.222-3.544l-3.067-47.439c-0.111-1.71,0.807-3.321,2.334-4.098l31.663-16.106
								C403.771,93.702,407.613,97.124,406.256,100.784z"></path>
                <path style="opacity:0.46;fill:#F1A900;" d="M406.256,100.784l-22.399,60.394c-0.375,1.01-1.116,1.842-2.076,2.33
								l-6.197,3.152c-2.745,1.396-6.023-0.471-6.222-3.544l-3.067-47.439c-0.111-1.71,0.807-3.321,2.334-4.098l31.663-16.106
								C403.771,93.702,407.613,97.124,406.256,100.784z"></path>
                <path style="opacity:0.46;fill:#F1A900;" d="M406.342,100.436l-8.472,4.31c-13.475,6.854-21.575,21.073-20.599,36.159
								l1.558,24.105l-3.26,1.658c-2.745,1.396-6.023-0.471-6.222-3.545l-3.067-47.439c-0.111-1.71,0.807-3.321,2.335-4.098
								l31.663-16.106C403.643,93.767,407.334,96.915,406.342,100.436z"></path>
                <path style="fill:#F1A900;" d="M425.047,88.104c-7.378,8.197-16.676,14.41-27.037,18.187
								c-23.955,8.732-71.244,24.857-74.974,17.523c-3.658-7.192,35.585-34.956,57.063-49.437
								c9.643-6.502,20.803-10.426,32.4-11.312c10.162-0.776,21.173-0.281,23.24,3.783
								C438.307,71.898,431.831,80.568,425.047,88.104z"></path>
                <g>
                  <path style="opacity:0.25;fill:#F1A900;" d="M425.047,88.104c6.783-7.537,13.113-16.496,10.544-21.546
									c-0.538-1.057-1.897-1.557-3.458-2.142c-0.183,0.337-0.183,0.389-0.378,0.728c1.317,5.142-4.21,13.5-10.186,20.675
									c-7.058,8.474-16.111,15.039-26.319,19.211c-12.456,5.09-31.324,12.483-46.959,17.278
									c16.189-4.137,36.503-11.2,49.721-16.018C408.372,102.515,417.67,96.301,425.047,88.104z"></path>
                </g>
                <path style="fill:#F1A900;" d="M326.392,147.882c1.102-0.561,1.873-1.61,2.08-2.829l4.347-25.678l0.359-0.183l-0.302-0.151
								l0.056-0.333l-0.359,0.183l-23.314-11.607c-1.107-0.551-2.409-0.546-3.511,0.015l-6.565,3.34
								c-2.86,1.455-2.842,5.546,0.03,6.976l15.836,7.884c1.54,0.767,2.397,2.451,2.11,4.147l-2.953,17.442
								c-0.536,3.163,2.761,5.587,5.621,4.132L326.392,147.882z"></path>
                <path style="opacity:0.46;fill:#F1A900;" d="M326.392,147.882c1.102-0.561,1.873-1.61,2.08-2.829l4.347-25.678l0.359-0.183
								l-0.302-0.151l0.056-0.333l-0.359,0.183l-23.314-11.607c-1.107-0.551-2.409-0.546-3.511,0.015l-6.565,3.34
								c-2.86,1.455-2.842,5.546,0.03,6.976l15.836,7.884c1.54,0.767,2.397,2.451,2.11,4.147l-2.953,17.442
								c-0.536,3.163,2.761,5.587,5.621,4.132L326.392,147.882z"></path>
              </g>
              <path style="fill:#CCF3FF;" d="M426.38,66.099c2.194,1.666,4.69,4.51,4.871,8.899c0.099,2.414-0.929,4.742-2.616,6.472l0,0
							l-8.723-17.147l0.543-0.025C422.58,64.197,424.685,64.812,426.38,66.099z"></path>
              <path style="fill:#FFE8BB;" d="M413.679,66.19c0,0-25.657,5.467-43.802,22.644L413.679,66.19z"></path>
            </g>
            <path style="fill:#FFFFFF;" d="M404.495,60.963c-0.546-1.237-1.419-2.219-2.459-2.929c2.677-2.608,3.477-6.749,1.694-10.256
						c-1.795-3.529-5.651-5.318-9.357-4.655c-0.087-0.634-0.254-1.266-0.561-1.869c-1.471-2.892-5.009-4.044-7.901-2.573
						c-2.859,1.454-4.008,4.926-2.612,7.8c-2.164,1.38-2.985,4.185-1.797,6.519c1.098,2.158,3.534,3.183,5.783,2.587
						c-1.535,1.654-2.146,4.065-1.345,6.341c0.869,2.472,3.129,4.052,5.593,4.183c0.059,0.168,0.092,0.339,0.165,0.505
						c1.561,3.534,5.692,5.133,9.226,3.572C404.457,68.627,406.056,64.497,404.495,60.963z"></path>
            <path style="fill:#FFFFFF;" d="M344.344,133.281c-0.417-0.943-1.082-1.693-1.875-2.234c2.042-1.989,2.653-5.148,1.292-7.823
						c-1.369-2.692-4.311-4.057-7.138-3.551c-0.066-0.484-0.194-0.966-0.428-1.425c-1.122-2.206-3.821-3.085-6.027-1.963
						c-2.181,1.109-3.057,3.758-1.993,5.95c-1.651,1.052-2.277,3.192-1.371,4.973c0.837,1.646,2.695,2.428,4.411,1.974
						c-1.171,1.262-1.637,3.1-1.026,4.837c0.663,1.886,2.387,3.091,4.266,3.191c0.045,0.128,0.07,0.259,0.126,0.385
						c1.191,2.696,4.342,3.916,7.037,2.725C344.315,139.128,345.535,135.977,344.344,133.281z"></path>
            <path style="fill:#FFFFFF;" d="M338.353,84.668c-0.594-1.345-1.544-2.414-2.675-3.187c2.913-2.837,3.783-7.342,1.842-11.157
						c-1.953-3.839-6.148-5.786-10.18-5.064c-0.094-0.69-0.276-1.377-0.61-2.033c-1.601-3.146-5.449-4.4-8.595-2.799
						c-3.111,1.582-4.36,5.359-2.842,8.485c-2.354,1.501-3.247,4.553-1.955,7.093c1.194,2.347,3.844,3.462,6.291,2.815
						c-1.669,1.8-2.335,4.422-1.464,6.898c0.946,2.689,3.404,4.408,6.085,4.551c0.064,0.183,0.1,0.369,0.179,0.549
						c1.698,3.845,6.192,5.585,10.037,3.886C338.312,93.007,340.052,88.513,338.353,84.668z"></path>
          </g>
        </g>
      </g>
    </g>
  </g>
</svg>