<svg version="1.1" x="0px" y="0px" viewBox="113.784 140.442 264.63 198.959" style="enable-background:new 0 0 500 500;" xmlns="http://www.w3.org/2000/svg">
  <defs></defs>
  <g id="Background" style="" transform="matrix(0.509753, 0, 0, 0.40052, 118.985698, 146.293904)">
    <rect style="fill: rgba(241, 160, 55, 0);" width="500" height="500"></rect>
  </g>
  <g>
    <g>
      <circle style="fill:#10B0E2;" cx="213.319" cy="223.264" r="48.736"></circle>
      <path style="fill:#A0DD52;" d="M262.338,228.997c0,0,2.201-35.218-19.81-35.218c-22.011,0-17.101,23.535-17.101,23.535
				S229.321,243.727,262.338,228.997z"></path>
      <path style="fill:#A0DD52;" d="M207.896,175.074c0,0,6.285,17.125,23.567,3.456C231.463,178.531,222.036,172.56,207.896,175.074z
				"></path>
      <path style="fill:#A0DD52;" d="M236.019,267.613c0,0-2.671-16.025,8.013-21.21c10.684-5.185,14.297,1.257,14.297,1.257
				S246.703,262.742,236.019,267.613z"></path>
      <path style="fill:#A0DD52;" d="M217.281,244.264c-0.028-3.466-0.31-7.646-3.365-9.283c-1.999-1.071-4.435-0.57-6.654-0.103
				c-6.425,1.353-12.957,2.199-19.515,2.525c-1.624,0.081-3.495,0.026-4.532-1.227c-0.764-0.924-0.824-2.226-0.812-3.426
				c0.039-3.93,0.463-7.856,1.265-11.703c0.69-3.313,1.709-6.662,3.838-9.292c2.129-2.63,5.582-4.41,8.899-3.745
				c3.535,0.709,5.971,3.826,8.779,6.088c1.58,1.272,3.874,2.31,5.543,1.157c1.742-1.204,1.478-3.81,1.02-5.878
				c-0.597-2.694-1.202-5.412-2.365-7.915c-2.267-4.883-6.614-8.892-7.438-14.212c-0.182-1.176-0.181-2.374-0.335-3.555
				c-0.32-2.447-1.384-4.952-3.004-6.902c-19.724,6.239-34.023,24.683-34.023,46.47c0,26.916,21.82,48.736,48.736,48.736
				c3.311,0,6.544-0.334,9.67-0.963c-0.984-2.958-2.314-5.813-3.283-8.783C217.822,256.478,217.33,250.339,217.281,244.264z"></path>
      <path style="fill:#FFFFFF;" d="M226.274,179.899c3.86,0,7.629,0.383,11.281,1.09c-7.141-4.103-15.411-6.461-24.237-6.461
				c-26.916,0-48.736,21.82-48.736,48.736c0,5.654,0.974,11.079,2.745,16.129c-0.002-0.179-0.014-0.355-0.014-0.534
				C167.314,206.296,193.712,179.899,226.274,179.899z"></path>
      <path style="stroke: rgb(41, 31, 57); stroke-width: 5.6693; stroke-linecap: round; stroke-miterlimit: 10; fill: none;" d="M283.772,209.762
				c-1.973,2.676-4.092,5.247-6.354,7.684c-6.72,7.24-15.16,14.04-25.039,16.138c-7.327,1.556-15.81-0.417-21.448-5.421
				c-2.405-2.135-4.309-4.82-5.528-7.796c-0.542-1.323-0.923-2.695-1.15-4.088c-1.592-9.729,4.751-18.873,14.171-21.779
				c0.247-0.076,0.497-0.148,0.75-0.216c7.274-1.951,14.885,1.748,18.204,8.508c3.299,6.718,5.099,14.303,4.951,22.326
				c-0.477,25.777-21.36,46.951-47.129,47.758c-28.104,0.88-51.073-22.059-50.242-50.152c0.77-26.051,22.346-47.081,48.408-47.224
				c8.145-0.045,15.822,1.923,22.583,5.415"></path>
      <line style="fill:none;stroke:#291F39;stroke-width:5.6693;stroke-linecap:round;stroke-linejoin:round;stroke-miterlimit:10;" x1="297.594" y1="184.76" x2="305.225" y2="176.598"></line>
      <g>
        <path style="fill:#FFFFFF;stroke:#291F39;stroke-width:5.6693;stroke-linecap:round;stroke-linejoin:round;stroke-miterlimit:10;" d="
					M308.179,188.887l18.503,20.411l8.734-8.799l-9.847-27.297c0,0,13.394-12.788,8.054-17.143
					c-5.34-4.355-22.894,14.046-22.894,14.046l-38.586,7.1l-4.722,5.231l31.163,1.628l-10.755,13.42l-15.308,1.157l-7.493,8.861
					l19.18,1.317l6.254,8.407l6.346-2.842l-1.929-9.516L308.179,188.887z"></path>
        <path style="fill:#D8D8D8;" d="M314.373,176.824l18.67,26.067l2.374-2.391l-9.847-27.297c0,0,13.394-12.788,8.054-17.143
					c-0.857-0.699-2.031-0.806-3.394-0.503C327.616,162.63,322.695,172.333,314.373,176.824z"></path>
        <polygon style="fill:#D8D8D8;" points="284.209,208.819 290.462,217.226 296.809,214.384 294.879,204.868 295.987,203.537 
					268.535,203.355 265.028,207.502 				"></polygon>
      </g>
      <path style="stroke: rgb(41, 31, 57); stroke-width: 5.6693; stroke-linecap: round; stroke-linejoin: round; stroke-miterlimit: 10; fill: none;" d="
				M308.179,188.887l18.503,20.411l8.734-8.799l-9.847-27.297c0,0,13.394-12.788,8.054-17.143
				c-5.34-4.355-22.894,14.046-22.894,14.046l-38.586,7.1l-4.722,5.231l31.163,1.628l-10.755,13.42l-15.308,1.157l-7.493,8.861
				l19.18,1.317l6.254,8.407l6.346-2.842l-1.929-9.516L308.179,188.887z"></path>
      <line style="fill:none;stroke:#291F39;stroke-width:5.6693;stroke-linecap:round;stroke-miterlimit:10;" x1="319.599" y1="216.375" x2="309.596" y2="229.909"></line>
      <line style="fill:none;stroke:#291F39;stroke-width:5.6693;stroke-linecap:round;stroke-miterlimit:10;" x1="297.827" y1="224.024" x2="290.177" y2="234.028"></line>
      <line style="fill:none;stroke:#291F39;stroke-width:5.6693;stroke-linecap:round;stroke-miterlimit:10;" x1="264.286" y1="171.359" x2="256.048" y2="182.834"></line>
      <path style="fill:none;stroke:#291F39;stroke-width:5.6693;stroke-linecap:round;stroke-linejoin:round;stroke-miterlimit:10;" d="
				M198.429,179.224c2.136,2.208,4.432,4.857,4.081,7.909c-0.098,0.852-0.405,1.676-0.433,2.533
				c-0.134,4.07,5.499,5.915,6.776,9.783c0.737,2.232-0.138,4.705,0.331,7.009c0.309,1.517,1.175,2.849,1.853,4.241
				c0.677,1.392,1.179,3,0.702,4.473c-0.477,1.473-2.299,2.558-3.637,1.78c-0.344-0.201-0.621-0.497-0.892-0.789
				c-1.816-1.956-3.632-3.911-5.448-5.867c-0.948-1.021-1.975-2.09-3.327-2.43c-2.09-0.526-4.202,0.85-6.357,0.819
				c-0.874-0.013-1.791-0.251-2.594,0.093c-0.608,0.261-1.035,0.813-1.419,1.353c-4.195,5.903-6.554,13.093-6.672,20.334
				c-0.03,1.832,0.109,3.761,1.105,5.299c1.347,2.081,4.011,2.98,6.489,2.915c2.478-0.065,4.853-0.93,7.215-1.683
				c4.639-1.479,9.406-2.556,14.23-3.215c2.206-0.302,4.872-0.328,6.16,1.488c0.485,0.684,0.68,1.528,0.838,2.352
				c0.961,4.988,0.983,10.154,0.064,15.15c-0.189,1.025-0.417,2.061-0.326,3.1c0.112,1.271,0.695,2.446,1.268,3.587
				c2.089,4.16,3.415,7.352,5.504,11.512"></path>
      <path style="fill:none;stroke:#291F39;stroke-width:5.6693;stroke-linecap:round;stroke-linejoin:round;stroke-miterlimit:10;" d="
				M257.17,245.273c-2.071,0.567-4.238-0.231-6.374-0.451c-4.716-0.485-9.6,2.18-11.743,6.408c-0.758,1.495-1.188,3.131-1.613,4.753
				c-0.907,3.463-1.823,7.027-1.389,10.58"></path>
      <path style="fill:none;stroke:#291F39;stroke-width:5.6693;stroke-linecap:round;stroke-linejoin:round;stroke-miterlimit:10;" d="
				M208.513,176.043c0.849,5.027,5.998,8.924,11.067,8.377c3.785-0.409,6.992-2.876,9.91-5.321"></path>
    </g>
    <g>
      <g>
        <text transform="matrix(1 0 0 1 123.0003 320.7295)" style="fill: rgb(239, 96, 15); font-family: ElectronicaDisplaySolid; font-size: 44.807px; white-space: pre;">TRAVEL</text>
        <g>
          <text transform="matrix(1 0 0 1 291.989 319.043)" style="fill: rgb(160, 221, 82); font-family: ElectronicaDisplaySolid; font-size: 40.9891px; white-space: pre;">JOY</text>
        </g>
        <g>
          <text transform="matrix(1 0 0 1 291.989 319.043)" style="fill: none; stroke: rgb(41, 31, 57); stroke-width: 2.8347; stroke-linecap: round; stroke-linejoin: round; stroke-miterlimit: 10; font-family: ElectronicaDisplaySolid; font-size: 40.9891px; white-space: pre;">JOY</text>
        </g>
      </g>
    </g>
  </g>
</svg>